<?xml version="1.0" encoding="UTF-8" standalone="no"?>
<!-- Created with Inkscape (http://www.inkscape.org/) -->

<svg
   xmlns:dc="http://purl.org/dc/elements/1.1/"
   xmlns:cc="http://creativecommons.org/ns#"
   xmlns:rdf="http://www.w3.org/1999/02/22-rdf-syntax-ns#"
   xmlns:svg="http://www.w3.org/2000/svg"
   xmlns="http://www.w3.org/2000/svg"
   xmlns:xlink="http://www.w3.org/1999/xlink"
   xmlns:sodipodi="http://sodipodi.sourceforge.net/DTD/sodipodi-0.dtd"
   xmlns:inkscape="http://www.inkscape.org/namespaces/inkscape"
   width="132"
   height="32"
   id="svg2318"
   sodipodi:version="0.32"
   inkscape:version="0.48.3.1 r9886"
   sodipodi:docname="bar_meter_horizontal.svg"
   inkscape:output_extension="org.inkscape.output.svgz.inkscape"
   version="1.0">
  <sodipodi:namedview
     id="base"
     pagecolor="#a4a4a4"
     bordercolor="#666666"
     borderopacity="1.0"
     gridtolerance="10000"
     guidetolerance="10"
     objecttolerance="10"
     inkscape:pageopacity="1"
     inkscape:pageshadow="2"
     inkscape:zoom="8"
     inkscape:cx="53.408609"
     inkscape:cy="-25.102531"
     inkscape:document-units="px"
     inkscape:current-layer="layer1"
     inkscape:window-width="1680"
     inkscape:window-height="1030"
     inkscape:window-x="-4"
     inkscape:window-y="-3"
     width="132px"
     height="32px"
     showgrid="false"
     inkscape:window-maximized="1">
    <inkscape:grid
       snapvisiblegridlinesonly="true"
       enabled="true"
       visible="true"
       empspacing="5"
       id="grid4569"
       type="xygrid" />
  </sodipodi:namedview>
  <defs
     id="defs2320">
    <linearGradient
       id="linearGradient4479">
      <stop
         id="stop4481"
         offset="0"
         style="stop-color:#000000;stop-opacity:0.07843138;" />
      <stop
         id="stop4483"
         offset="1"
         style="stop-color:#000000;stop-opacity:0;" />
    </linearGradient>
    <linearGradient
       y2="62.96875"
       x2="59.497936"
       y1="51.125"
       x1="59.497936"
       gradientUnits="userSpaceOnUse"
       id="linearGradient5142"
       xlink:href="#linearGradient4479"
       inkscape:collect="always" />
    <linearGradient
       y2="63"
       x2="58.25"
       y1="51"
       x1="58.25"
       gradientTransform="translate(11.75,0)"
       gradientUnits="userSpaceOnUse"
       id="linearGradient5144"
       xlink:href="#linearGradient4479"
       inkscape:collect="always" />
    <linearGradient
       y2="62.84375"
       x2="71.75"
       y1="50.90625"
       x1="71.75"
       gradientTransform="translate(-0.74174422,0)"
       gradientUnits="userSpaceOnUse"
       id="linearGradient5146"
       xlink:href="#linearGradient4479"
       inkscape:collect="always" />
    <linearGradient
       y2="63"
       x2="58"
       y1="51"
       x1="58"
       gradientUnits="userSpaceOnUse"
       id="linearGradient5148"
       xlink:href="#linearGradient4479"
       inkscape:collect="always" />
    <linearGradient
       y2="63"
       x2="58.25"
       y1="51"
       x1="58.25"
       gradientTransform="translate(11.75,0)"
       gradientUnits="userSpaceOnUse"
       id="linearGradient5150"
       xlink:href="#linearGradient4479"
       inkscape:collect="always" />
    <linearGradient
       y2="63"
       x2="58"
       y1="51"
       x1="58"
       gradientUnits="userSpaceOnUse"
       id="linearGradient5152"
       xlink:href="#linearGradient4479"
       inkscape:collect="always" />
    <linearGradient
       y2="51"
       x2="59.501034"
       y1="63"
       x1="59.501034"
       gradientUnits="userSpaceOnUse"
       id="linearGradient5154"
       xlink:href="#linearGradient4479"
       inkscape:collect="always" />
    <linearGradient
       y2="51"
       x2="58"
       y1="63"
       x1="58"
       gradientTransform="translate(11.75,0)"
       gradientUnits="userSpaceOnUse"
       id="linearGradient5156"
       xlink:href="#linearGradient4479"
       inkscape:collect="always" />
    <linearGradient
       y2="51"
       x2="58"
       y1="63"
       x1="58"
       gradientTransform="translate(11.75,0)"
       gradientUnits="userSpaceOnUse"
       id="linearGradient5158"
       xlink:href="#linearGradient4479"
       inkscape:collect="always" />
    <linearGradient
       id="linearGradient4249">
      <stop
         id="stop4251"
         offset="0"
         style="stop-color:#ffffff;stop-opacity:1;" />
      <stop
         style="stop-color:#ffffff;stop-opacity:0.78431374;"
         offset="0.47000003"
         id="stop4253" />
      <stop
         id="stop4255"
         offset="0.75125003"
         style="stop-color:#ffffff;stop-opacity:0.51724136;" />
      <stop
         id="stop4257"
         offset="1"
         style="stop-color:#ffffff;stop-opacity:1;" />
    </linearGradient>
    <linearGradient
       id="linearGradient3289">
      <stop
         id="stop3291"
         style="stop-color:#ffffff;stop-opacity:1"
         offset="0" />
      <stop
         id="stop3294"
         style="stop-color:#ffffff;stop-opacity:1"
         offset="1" />
    </linearGradient>
    <linearGradient
       id="linearGradient2916">
      <stop
         id="stop2918"
         style="stop-color:#ffffff;stop-opacity:1"
         offset="0" />
      <stop
         id="stop2920"
         style="stop-color:#ffffff;stop-opacity:0"
         offset="1" />
    </linearGradient>
    <linearGradient
       id="linearGradient3140">
      <stop
         id="stop3142"
         style="stop-color:#ffffff;stop-opacity:1"
         offset="0" />
      <stop
         id="stop3144"
         style="stop-color:#ffffff;stop-opacity:0"
         offset="1" />
    </linearGradient>
    <linearGradient
       id="linearGradient2895">
      <stop
         id="stop2897"
         style="stop-color:#ffffff;stop-opacity:1"
         offset="0" />
      <stop
         id="stop2899"
         style="stop-color:#ffffff;stop-opacity:0"
         offset="1" />
    </linearGradient>
    <linearGradient
       x1="38.875084"
       y1="67.528122"
       x2="90.409752"
       y2="67.528122"
       id="linearGradient6228"
       xlink:href="#linearGradient2916"
       gradientUnits="userSpaceOnUse"
       gradientTransform="matrix(0.511504,0,0,1.80649,68.030435,-6.0981568)" />
    <linearGradient
       x1="38.875084"
       y1="67.528122"
       x2="90.409752"
       y2="67.528122"
       id="linearGradient6233"
       xlink:href="#linearGradient2916"
       gradientUnits="userSpaceOnUse"
       gradientTransform="matrix(0.511504,0,0,0.96108,67.773305,4.8320565)" />
    <linearGradient
       x1="11.543377"
       y1="3.4375"
       x2="10.88339"
       y2="5.9006019"
       id="linearGradient6238"
       xlink:href="#linearGradient2895"
       gradientUnits="userSpaceOnUse"
       gradientTransform="matrix(5.467529,0,0,5.820575,24.290213,-2.0656323)" />
    <linearGradient
       x1="38.875084"
       y1="67.528122"
       x2="90.409752"
       y2="67.528122"
       id="linearGradient6243"
       xlink:href="#linearGradient2916"
       gradientUnits="userSpaceOnUse"
       gradientTransform="matrix(0.511504,0,0,0.77135,67.773305,6.6291413)" />
    <radialGradient
       cx="68.000046"
       cy="-117.34602"
       r="27.999956"
       fx="68.000046"
       fy="-117.34602"
       id="radialGradient9168"
       xlink:href="#linearGradient3140"
       gradientUnits="userSpaceOnUse"
       gradientTransform="matrix(0.990365,0,0,1.664158,16.251985,75.514833)" />
    <linearGradient
       x1="18.01074"
       y1="65.760353"
       x2="72.498932"
       y2="65.760353"
       id="linearGradient2867"
       xlink:href="#linearGradient3289"
       gradientUnits="userSpaceOnUse"
       gradientTransform="matrix(1.017716,0,0,0.960169,5.524222,-18.774756)" />
    <linearGradient
       inkscape:collect="always"
       xlink:href="#linearGradient4249"
       id="linearGradient4071"
       x1="59"
       y1="62"
       x2="59"
       y2="52"
       gradientUnits="userSpaceOnUse" />
    <linearGradient
       inkscape:collect="always"
       xlink:href="#linearGradient4249"
       id="linearGradient4079"
       x1="60.999996"
       y1="52"
       x2="59.999996"
       y2="52"
       gradientUnits="userSpaceOnUse" />
  </defs>
  <metadata
     id="metadata2323">
    <rdf:RDF>
      <cc:Work
         rdf:about="">
        <dc:format>image/svg+xml</dc:format>
        <dc:type
           rdf:resource="http://purl.org/dc/dcmitype/StillImage" />
        <dc:title />
      </cc:Work>
    </rdf:RDF>
  </metadata>
  <g
     id="layer1"
     inkscape:groupmode="layer"
     inkscape:label="Layer 1">
    <rect
       inkscape:export-ydpi="90"
       inkscape:export-xdpi="90"
       inkscape:export-filename="/home/pinheiro/Documents/pics/estilo/plasma/rect2996.png"
       ry="1.4393399"
       rx="1.4393399"
       y="15"
       x="-4.7494506e-08"
       height="16"
       width="132"
       id="background"
       style="opacity:0.19101126;fill:#cecece;fill-opacity:1;stroke:none;stroke-width:2;stroke-linecap:round;stroke-linejoin:round;stroke-miterlimit:4;stroke-dasharray:none;stroke-dashoffset:1.08779998;stroke-opacity:1" />
    <rect
       y="1"
       x="0"
       height="12"
       width="65"
       id="label0"
       style="opacity:1;fill:#0000ff;fill-opacity:0.50196078;fill-rule:evenodd;stroke:none;stroke-width:3.19400001;stroke-linecap:round;stroke-linejoin:round;stroke-miterlimit:4;stroke-dasharray:none;stroke-opacity:0.50196078" />
    <rect
       style="opacity:1;fill:#0000ff;fill-opacity:0.50196078;fill-rule:evenodd;stroke:none;stroke-width:3.19400001;stroke-linecap:round;stroke-linejoin:round;stroke-miterlimit:4;stroke-dasharray:none;stroke-opacity:0.50196078"
       id="label1"
       width="65"
       height="12"
       x="67"
       y="1" />
    <rect
       style="opacity:1;fill:#0000ff;fill-opacity:0.50196078;fill-rule:evenodd;stroke:none;stroke-width:3.19400001;stroke-linecap:round;stroke-linejoin:round;stroke-miterlimit:4;stroke-dasharray:none;stroke-opacity:0.50196078"
       id="label2"
       width="65"
       height="12"
       x="35"
       y="1" />
    <path
       id="background-top"
       d="M 47.57367,36.329243 L 47.57367,37.329243 L 52.57367,37.329243 L 52.57367,36.329243 L 47.57367,36.329243 z"
       style="fill:#f0f0f0;fill-opacity:0.39215687;stroke:none;stroke-width:0.30000000999999998;stroke-linecap:round;stroke-linejoin:round;stroke-miterlimit:4;stroke-opacity:1" />
    <path
       id="background-topright"
       d="M 52.57367,36.329243 L 52.57367,37.329243 L 53.57367,37.329243 C 53.524081,36.792177 53.115333,36.361133 52.57367,36.329243 z"
       style="fill:#f0f0f0;fill-opacity:0.39215687;stroke:none;stroke-width:0.30000000999999998;stroke-linecap:round;stroke-linejoin:round;stroke-miterlimit:4;stroke-opacity:1" />
    <path
       id="background-topleft"
       d="M 47.57367,36.329243 C 47.035002,36.360955 46.627228,36.796369 46.57367,37.329243 L 47.57367,37.329243 L 47.57367,36.329243 z"
       style="fill:#f0f0f0;fill-opacity:0.39215687;stroke:none;stroke-width:0.30000000999999998;stroke-linecap:round;stroke-linejoin:round;stroke-miterlimit:4;stroke-opacity:1" />
    <path
       id="background-center"
       d="M 47.57367,37.329243 L 47.57367,47.329243 L 52.57367,47.329243 L 52.57367,37.329243 L 47.57367,37.329243 z"
       style="fill:#f0f0f0;fill-opacity:0.39215687;stroke:none;stroke-width:0.30000000999999998;stroke-linecap:round;stroke-linejoin:round;stroke-miterlimit:4;stroke-opacity:1" />
    <path
       style="fill:#f0f0f0;fill-opacity:0.39215687;stroke:none;stroke-width:0.30000000999999998;stroke-linecap:round;stroke-linejoin:round;stroke-miterlimit:4;stroke-opacity:1"
       d="M 46.57367,37.329243 L 46.57367,47.329243 L 47.57367,47.329243 L 47.57367,37.329243 L 46.57367,37.329243 z"
       id="background-left" />
    <path
       id="background-right"
       d="M 52.57367,37.329243 L 52.57367,47.329243 L 53.57367,47.329243 L 53.57367,37.329243 L 52.57367,37.329243 z"
       style="fill:#f0f0f0;fill-opacity:0.39215687;stroke:none;stroke-width:0.30000000999999998;stroke-linecap:round;stroke-linejoin:round;stroke-miterlimit:4;stroke-opacity:1" />
    <path
       style="fill:#f0f0f0;fill-opacity:0.39215687;stroke:none;stroke-width:0.30000000999999998;stroke-linecap:round;stroke-linejoin:round;stroke-miterlimit:4;stroke-opacity:1"
       d="M 47.57367,48.329243 L 47.57367,47.329243 L 52.57367,47.329243 L 52.57367,48.329243 L 47.57367,48.329243 z"
       id="background-bottom" />
    <path
       style="fill:#f0f0f0;fill-opacity:0.39215687;stroke:none;stroke-width:0.30000000999999998;stroke-linecap:round;stroke-linejoin:round;stroke-miterlimit:4;stroke-opacity:1"
       d="M 52.57367,48.329243 L 52.57367,47.329243 L 53.57367,47.329243 C 53.524081,47.866309 53.115333,48.297353 52.57367,48.329243 z"
       id="background-bottomright" />
    <path
       style="fill:#f0f0f0;fill-opacity:0.39215687;stroke:none;stroke-width:0.30000000999999998;stroke-linecap:round;stroke-linejoin:round;stroke-miterlimit:4;stroke-opacity:1"
       d="M 47.57367,48.329243 C 47.035002,48.297531 46.627228,47.862117 46.57367,47.329243 L 47.57367,47.329243 L 47.57367,48.329243 z"
       id="background-bottomleft" />
    <g
       transform="translate(-1245.7223,31.468396)"
       inkscape:label="layer1"
       style="display:none"
       id="g2699" />
    <g
       transform="translate(-1245.7223,31.468396)"
       inkscape:label="glow"
       style="display:inline"
       id="layer2" />
    <g
       inkscape:label="layer1"
       style="display:none"
       id="g2424"
       transform="translate(1183.3387,-1448.411)" />
    <g
       inkscape:label="glow"
       style="display:inline"
       id="g2426"
       transform="translate(1183.3387,-1448.411)" />
    <g
       inkscape:label="Layer 1"
       id="g3429"
       transform="translate(1229.3165,-479.54833)" />
    <g
       inkscape:label="Layer 1"
       id="g19758"
       transform="translate(3015.607,-96.090247)" />
    <g
       inkscape:label="Layer 1"
       id="g3935"
       transform="translate(4120.4322,-974.35962)" />
    <g
       inkscape:label="Layer 1"
       id="g8459"
       transform="translate(1722.5625,-989.70682)" />
    <g
       inkscape:label="Layer 1"
       id="g28391"
       transform="translate(371.74503,338.90483)" />
    <g
       inkscape:label="Layer 1"
       id="g28393"
       transform="translate(1476.5702,-539.36453)" />
    <g
       inkscape:label="Layer 1"
       id="g28395"
       transform="translate(-921.29947,-554.71173)" />
    <g
       inkscape:label="Layer 1"
       id="g6598"
       transform="translate(2518.245,330.90483)" />
    <g
       inkscape:label="Layer 1"
       id="g6640"
       transform="translate(3623.0702,-547.36453)" />
    <g
       inkscape:label="Layer 1"
       id="g6716"
       transform="translate(1225.2005,-562.71176)" />
    <g
       id="g6850"
       transform="matrix(1,0,0,-1,54.27773,791.86183)"
       style="opacity:0.45945943" />
    <text
       xml:space="preserve"
       style="font-size:14px;font-style:normal;font-variant:normal;font-weight:bold;font-stretch:normal;text-align:justify;line-height:125%;writing-mode:lr-tb;text-anchor:start;fill:#000000;fill-opacity:1;stroke:none;stroke-width:1px;stroke-linecap:butt;stroke-linejoin:miter;stroke-opacity:1;font-family:Gill Sans"
       x="278.27774"
       y="288.8306"
       id="text6990"
       sodipodi:linespacing="125%"><tspan
         sodipodi:role="line"
         id="tspan6992"
         x="278.27774"
         y="288.8306" /></text>
    <g
       transform="matrix(1.3324171,0,0,1,-19.280196,0)"
       id="bar-active-top">
      <path
         id="path3795"
         d="m 58,51 0,2 2.99587,0 0,-2 L 58,51 z"
         style="fill:#000000;fill-opacity:0.19607843;stroke:none" />
      <path
         style="fill:#ffffff;fill-opacity:1;stroke:none"
         d="m 58,52 0,1 2.99587,0 0,-1 L 58,52 z"
         id="path2919" />
    </g>
    <g
       id="bar-active-topleft">
      <path
         id="path3859"
         d="m 57.999989,51 c -1.077336,0.06342 -1.892884,0.934252 -2,2 l 2,0 0,-2 z"
         style="fill:#000000;fill-opacity:0.19607843;stroke:none" />
      <path
         style="fill:#ffffff;fill-opacity:1;stroke:none"
         d="m 58,52 c -0.538668,0.03171 -0.946442,0.467126 -1,1 l 1,0 0,-1 z"
         id="path2925" />
    </g>
    <path
       id="bar-active-center"
       d="m 58.004122,53 0,8 3.991749,0 0,-8 -3.991749,0 z"
       style="fill:url(#linearGradient4071);fill-opacity:1;stroke:none" />
    <g
       id="bar-active-left">
      <path
         id="path3799"
         d="m 58,53 0,8 -2,0 0,-8 2,0 z"
         style="fill:#000000;fill-opacity:0.19607843;stroke:none" />
      <path
         id="path2933"
         d="m 57.003791,53 0,8 1,0 0,-8 -1,0 z"
         style="fill:#ffffff;fill-opacity:1;stroke:none" />
    </g>
    <g
       transform="translate(1.000011,0)"
       id="bar-active-topright">
      <path
         style="fill:#000000;fill-opacity:0.19607843;stroke:none"
         d="m 60.999989,51 c 1.077336,0.06342 1.892884,0.934252 2,2 l -2,0 0,-2 z"
         id="path3805" />
      <path
         id="path2939"
         d="m 60.999989,52 c 0.538668,0.03171 0.946442,0.467126 1,1 l -1,0 0,-1 z"
         style="fill:#ffffff;fill-opacity:1;stroke:none" />
    </g>
    <g
       transform="translate(1.000002,0)"
       id="bar-active-right">
      <path
         style="fill:#000000;fill-opacity:0.19607843;stroke:none"
         d="m 63,53 0,8 -2,0 0,-8 2,0 z"
         id="path3801" />
      <path
         style="fill:url(#linearGradient4079);fill-opacity:1;stroke:none"
         d="m 61.999998,53 0,8 -1,0 0,-8 1,0 z"
         id="path2945" />
    </g>
    <g
       transform="matrix(1.3324177,0,0,1,-19.277481,0)"
       id="bar-active-bottom">
      <path
         style="fill:#000000;fill-opacity:0.19607843;stroke:none"
         d="m 58.004131,63 0,-2 L 61,61 l 0,2 -2.995869,0 z"
         id="path3797" />
      <path
         id="path2949"
         d="m 58.004131,62 0,-1 L 61,61 l 0,1 -2.995869,0 z"
         style="fill:#ffffff;fill-opacity:1;stroke:none" />
    </g>
    <g
       id="bar-active-bottomleft">
      <path
         style="fill:#000000;fill-opacity:0.19607843;stroke:none"
         d="m 58,63 c -1.077336,-0.06342 -1.892884,-0.934252 -2,-2 l 2,0 0,2 z"
         id="path3807" />
      <path
         id="path2955"
         d="m 58.003791,62 c -0.538668,-0.03171 -0.946442,-0.467126 -1,-1 l 1,0 0,1 z"
         style="fill:#ffffff;fill-opacity:1;stroke:none" />
    </g>
    <g
       transform="translate(1.000011,0)"
       id="bar-active-bottomright">
      <path
         style="fill:#000000;fill-opacity:0.19607843;stroke:none"
         d="m 61,63 0,-2 2,0 c -0.09918,1.074132 -0.916674,1.93622 -2,2 z"
         id="path3809" />
      <path
         id="path2961"
         d="m 61.003791,62 0,-1 1,0 c -0.04959,0.537066 -0.458337,0.96811 -1,1 z"
         style="fill:#ffffff;fill-opacity:1;stroke:none" />
    </g>
    <g
       transform="matrix(1.3324171,0,0,1,-8.2719402,0)"
       id="bar-inactive-top">
      <path
         id="path5094"
         d="m 58,51 0,1 2.99587,0 0,-1 L 58,51 z"
         style="fill:#000000;fill-opacity:0.19607843;stroke:none" />
      <path
         style="fill:url(#linearGradient5142);fill-opacity:1;stroke:none"
         d="m 58,52 0,1 2.99587,0 0,-1 L 58,52 z"
         id="path5096" />
    </g>
    <g
       id="bar-inactive-topleft"
       transform="translate(-0.74174422,0)">
      <path
         id="path5100"
         d="m 69.75,51 c -1.077336,0.06342 -1.892884,0.934252 -2,2 l 1,0 c 0.05356,-0.532874 0.461332,-0.96829 1,-1 l 0,-1 z"
         style="fill:#000000;fill-opacity:0.19607843;stroke:none" />
      <path
         style="fill:url(#linearGradient5144);fill-opacity:1;stroke:none"
         d="m 69.75,52 c -0.538668,0.03171 -0.946442,0.467126 -1,1 l 1,0 0,-1 z"
         id="path5102" />
    </g>
    <path
       id="bar-inactive-center"
       d="m 69.012378,53 0,8 3.991749,0 0,-8 -3.991749,0 z"
       style="fill:url(#linearGradient5146);fill-opacity:1;stroke:none" />
    <g
       id="bar-inactive-left"
       transform="translate(11.008256,0)">
      <path
         id="path5108"
         d="m 57,53 0,8 -1,0 0,-8 1,0 z"
         style="fill:#000000;fill-opacity:0.19607843;stroke:none" />
      <path
         id="path5110"
         d="m 57.003791,53 0,8 1,0 0,-8 -1,0 z"
         style="fill:url(#linearGradient5148);fill-opacity:1;stroke:none" />
    </g>
    <g
       transform="matrix(-1,0,0,1,142.75826,0)"
       id="bar-inactive-topright">
      <path
         style="fill:#000000;fill-opacity:0.19607843;stroke:none"
         d="m 69.75,51 c -1.077336,0.06342 -1.892884,0.934252 -2,2 l 1,0 c 0.05356,-0.532874 0.461332,-0.96829 1,-1 l 0,-1 z"
         id="path5114" />
      <path
         id="path5116"
         d="m 69.75,52 c -0.538668,0.03171 -0.946442,0.467126 -1,1 l 1,0 0,-1 z"
         style="fill:url(#linearGradient5150);fill-opacity:1;stroke:none" />
    </g>
    <g
       transform="matrix(-1,0,0,1,131.01205,0)"
       id="bar-inactive-right">
      <path
         style="fill:#000000;fill-opacity:0.19607843;stroke:none"
         d="m 57,53 0,8 -1,0 0,-8 1,0 z"
         id="path5120" />
      <path
         style="fill:url(#linearGradient5152);fill-opacity:1;stroke:none"
         d="m 57.003791,53 0,8 1,0 0,-8 -1,0 z"
         id="path5122" />
    </g>
    <g
       id="bar-inactive-bottom"
       transform="matrix(1.3324171,0,0,-1,-8.2719402,114)">
      <path
         style="fill:#000000;fill-opacity:0.19607843;stroke:none"
         d="m 58,51 0,1 2.99587,0 0,-1 L 58,51 z"
         id="path5126" />
      <path
         id="path5128"
         d="m 58,52 0,1 2.99587,0 0,-1 L 58,52 z"
         style="fill:url(#linearGradient5154);fill-opacity:1;stroke:none" />
    </g>
    <g
       transform="matrix(1,0,0,-1,-0.74174422,114)"
       id="bar-inactive-bottomleft">
      <path
         style="fill:#000000;fill-opacity:0.19607843;stroke:none"
         d="m 69.75,51 c -1.077336,0.06342 -1.892884,0.934252 -2,2 l 1,0 c 0.05356,-0.532874 0.461332,-0.96829 1,-1 l 0,-1 z"
         id="path5132" />
      <path
         id="path5134"
         d="m 69.75,52 c -0.538668,0.03171 -0.946442,0.467126 -1,1 l 1,0 0,-1 z"
         style="fill:url(#linearGradient5156);fill-opacity:1;stroke:none" />
    </g>
    <g
       id="bar-inactive-bottomright"
       transform="matrix(-1,0,0,-1,142.75826,114)">
      <path
         id="path5138"
         d="m 69.75,51 c -1.077336,0.06342 -1.892884,0.934252 -2,2 l 1,0 c 0.05356,-0.532874 0.461332,-0.96829 1,-1 l 0,-1 z"
         style="fill:#000000;fill-opacity:0.19607843;stroke:none" />
      <path
         style="fill:url(#linearGradient5158);fill-opacity:1;stroke:none"
         d="m 69.75,52 c -0.538668,0.03171 -0.946442,0.467126 -1,1 l 1,0 0,-1 z"
         id="path5140" />
    </g>
    <g
       transform="translate(334.69171,109.38481)"
       id="WhiteBackgroundLayer"
       style="display:none">
      <rect
         width="55.453815"
         height="104.63548"
         rx="2.1937749"
         ry="1.9589152"
         x="3.8541794"
         y="-7.9516411"
         id="Background"
         style="opacity:0.69897964;fill:url(#linearGradient2867);fill-opacity:1;fill-rule:nonzero;stroke:none" />
    </g>
    <g
       id="Overlay"
       style="display:none"
       transform="translate(302.87558,86.29596)">
      <rect
         width="128.05061"
         height="127.79347"
         x="1.0394411e-06"
         y="-0.054732177"
         id="spacerover"
         style="fill:none" />
      <rect
         width="13.170826"
         height="102.8517"
         rx="0"
         ry="0"
         x="70.721039"
         y="16.672493"
         id="over5"
         style="opacity:0.22540983;fill:url(#linearGradient6233);fill-opacity:1;fill-rule:nonzero;stroke:none" />
      <rect
         width="13.170826"
         height="31.863861"
         rx="0"
         ry="0"
         x="70.721039"
         y="16.132019"
         id="over4"
         style="opacity:0.22540983;fill:url(#linearGradient6243);fill-opacity:1;fill-rule:nonzero;stroke:none" />
      <path
         d="M 60.854303,17.942584 C 60.333693,17.942584 60,18.479714 60,19.03394 l 0,3.092181 c 10.885517,18.631489 33.205893,8.369177 48.52429,5.093002 l 0,-8.185183 c 0,-0.554226 -0.33368,-1.091356 -0.85429,-1.091356 l -46.815697,0 z"
         id="over3"
         style="opacity:0.48360656;fill:url(#linearGradient6238);fill-opacity:1;fill-rule:nonzero;stroke:none" />
      <rect
         width="13.170826"
         height="71.838249"
         rx="0"
         ry="0"
         x="70.978165"
         y="16.157631"
         id="over2"
         style="opacity:0.22540983;fill:url(#linearGradient6228);fill-opacity:1;fill-rule:nonzero;stroke:none" />
      <rect
         width="55.460392"
         height="61.206009"
         rx="2.0960798"
         ry="1.9391078"
         x="40.866707"
         y="-119.74129"
         transform="scale(1,-1)"
         id="over1"
         style="opacity:0.41000001;fill:url(#radialGradient9168);fill-opacity:1;fill-rule:nonzero;stroke:none" />
    </g>
    <g
       transform="translate(46.596225,256.04212)"
       id="layer4"
       style="display:inline" />
    <g
       transform="translate(46.596225,256.04212)"
       id="layer5"
       style="display:inline" />
    <rect
       width="1"
       height="0"
       x="-39.873199"
       y="194.50946"
       id="rect1327"
       style="opacity:0.57786889;fill:#ffffff;fill-opacity:1;fill-rule:nonzero;stroke:none" />
    <rect
       width="1"
       height="0"
       x="-75"
       y="166.98184"
       id="rect2482"
       style="opacity:0.57786889;fill:#ffffff;fill-opacity:1;fill-rule:nonzero;stroke:none" />
    <g
       transform="matrix(-0.782995,0,0,0.650879,-2556.7961,780.28332)"
       id="g4640"
       style="opacity:0.40163933" />
    <g
       transform="matrix(-0.782995,0,0,0.650879,-2556.7961,780.28332)"
       id="g4646"
       style="opacity:0.40163933" />
    <g
       transform="matrix(1,0,0,0.650879,644.16702,787.61112)"
       id="g4730"
       style="opacity:0.40163933" />
    <g
       transform="matrix(1,0,0,0.650879,644.16702,787.61112)"
       id="g4748"
       style="opacity:0.40163933" />
    <g
       transform="translate(207.61082,370.23817)"
       id="g3021"
       style="display:inline" />
    <g
       transform="translate(207.61082,370.23817)"
       id="g3023"
       style="display:inline" />
    <rect
       width="1"
       height="0"
       x="121.14144"
       y="308.70551"
       id="rect3067"
       style="opacity:0.57786889;fill:#ffffff;fill-opacity:1;fill-rule:nonzero;stroke:none" />
  </g>
</svg>
